<?xml version="1.0" ?><svg id="Layer_1" style="enable-background:new 0 0 412 412;" version="1.1" viewBox="0 0 412 412" xml:space="preserve" xmlns="http://www.w3.org/2000/svg" xmlns:xlink="http://www.w3.org/1999/xlink"><style type="text/css">
	.st0{fill:#00B25A;}
	.st1{fill:#64DD5E;}
	.st2{fill:#F9BD55;}
	.st3{fill:#E2A54D;}
</style><g><g><path class="st0" d="M345.4,233.5H66.6c-6.6,0-12-5.4-12-12V88.7c0-6.6,5.4-12,12-12h278.7c6.6,0,12,5.4,12,12v132.9    C357.4,228.1,352,233.5,345.4,233.5z"/><path class="st1" d="M310.8,98.2c0-0.3,0-0.7,0-1H101.2c0,0.3,0.1,0.7,0.1,1c0,11.7-9.5,21.2-21.2,21.2v72.3    c11.7,0,21.2,9.5,21.2,21.2h209.6c0-11.7,9.5-21.2,21.2-21.2v-72.3C320.3,119.4,310.8,109.9,310.8,98.2z M148.5,166.7    c-6.4,0-11.6-5.2-11.6-11.6c0-6.4,5.2-11.6,11.6-11.6c6.4,0,11.6,5.2,11.6,11.6C160,161.5,154.9,166.7,148.5,166.7z M206,199.1    c-19.2,0-34.7-18.6-34.7-41.5s15.5-41.5,34.7-41.5s34.7,18.6,34.7,41.5C240.7,180.5,225.2,199.1,206,199.1z M263.5,166.7    c-6.4,0-11.6-5.2-11.6-11.6c0-6.4,5.2-11.6,11.6-11.6s11.6,5.2,11.6,11.6C275.1,161.5,269.9,166.7,263.5,166.7z"/><path class="st1" d="M222.8,160.8c-1.1-1.6-2.6-3.1-4.7-4.3c-2.1-1.2-4.7-2.2-7.9-3.1c-2.7-0.7-4.9-1.3-6.4-1.8    c-1.6-0.5-2.8-1.1-3.7-1.9c-0.9-0.8-1.4-1.8-1.4-3c0-1.3,0.6-2.4,1.9-3.3c1.3-0.9,2.8-1.3,4.7-1.3c1.8,0,3.3,0.3,4.4,1    c1.1,0.7,2,1.6,2.8,2.7c1,1.3,1.8,2.4,2.6,3s1.7,1,2.7,1c1.5,0,2.6-0.4,3.4-1.3s1.2-1.9,1.2-3.2c0-1.2-0.4-2.4-1.1-3.7    c-0.8-1.3-1.9-2.4-3.3-3.4c-1.4-1-3.2-1.9-5.4-2.5c-0.1,0-0.3-0.1-0.4-0.1v-3.9c0-3.1-2.5-5.7-5.6-5.7c-3.1,0-5.6,2.5-5.6,5.7v3.5    c-1.6,0.3-3.1,0.8-4.4,1.4c-2.4,1.2-4.3,2.8-5.5,4.9c-1.3,2-1.9,4.2-1.9,6.5c0,2.6,0.7,4.7,2,6.5s3.1,3.2,5.4,4.3    c2.3,1.1,5.2,2.1,8.8,3.1c3.2,0.8,5.5,1.7,6.9,2.6s2.1,2.4,2.1,4.4c0,1.3-0.7,2.5-2,3.5s-3.1,1.5-5.1,1.5c-2.6,0-4.6-0.5-6.1-1.5    c-1.5-1-2.8-2.5-3.8-4.6c-0.5-1.1-1.1-1.9-1.7-2.5c-0.6-0.6-1.4-0.9-2.5-0.9c-1.3,0-2.3,0.4-3.1,1.3c-0.8,0.9-1.2,2-1.2,3.2    c0,1.9,0.6,3.8,1.9,5.7s3.3,3.5,5.9,4.7c1.3,0.6,2.8,1.1,4.4,1.4v3.6c0,3.1,2.5,5.7,5.6,5.7c3.1,0,5.6-2.5,5.6-5.7v-3.6    c1.4-0.3,2.8-0.7,3.9-1.2c2.7-1.2,4.8-2.9,6.2-5.1c1.4-2.3,2.1-4.9,2.1-8.1C224.4,164.3,223.8,162.5,222.8,160.8z"/></g><g><circle class="st2" cx="310.6" cy="237.6" r="44"/><circle class="st3" cx="310.6" cy="237.6" r="35"/><path class="st2" d="M323.2,239.5c-0.7-1.1-1.8-2.1-3.3-3c-1.4-0.8-3.3-1.6-5.5-2.2c-1.9-0.5-3.4-0.9-4.5-1.3    c-1.1-0.4-2-0.8-2.6-1.3c-0.6-0.5-1-1.2-1-2.1c0-0.9,0.4-1.7,1.3-2.3c0.9-0.6,2-0.9,3.3-0.9c1.3,0,2.3,0.2,3,0.7s1.4,1.1,2,1.9    c0.7,0.9,1.3,1.6,1.8,2.1c0.5,0.5,1.2,0.7,1.9,0.7c1,0,1.8-0.3,2.4-0.9c0.6-0.6,0.8-1.3,0.8-2.3c0-0.8-0.3-1.7-0.8-2.6    s-1.3-1.7-2.3-2.4c-1-0.7-2.3-1.3-3.8-1.7c-0.1,0-0.2-0.1-0.3-0.1v-2.7c0-2.2-1.8-4-3.9-4s-3.9,1.8-3.9,4v2.4    c-1.1,0.2-2.2,0.5-3.1,1c-1.7,0.9-3,2-3.9,3.4s-1.3,2.9-1.3,4.6c0,1.8,0.5,3.3,1.4,4.6c0.9,1.2,2.2,2.2,3.8,3    c1.6,0.8,3.6,1.5,6.1,2.2c2.2,0.6,3.8,1.2,4.8,1.9c1,0.6,1.5,1.7,1.5,3.1c0,0.9-0.5,1.7-1.4,2.5c-0.9,0.7-2.1,1.1-3.6,1.1    c-1.8,0-3.2-0.4-4.3-1.1c-1-0.7-1.9-1.8-2.7-3.2c-0.4-0.7-0.8-1.3-1.2-1.7c-0.4-0.4-1-0.6-1.8-0.6c-0.9,0-1.6,0.3-2.2,0.9    s-0.9,1.4-0.9,2.3c0,1.3,0.5,2.7,1.3,4c0.9,1.3,2.3,2.4,4.1,3.3c0.9,0.4,2,0.8,3.1,1v2.5c0,2.2,1.8,4,3.9,4s3.9-1.8,3.9-4v-2.5    c1-0.2,1.9-0.5,2.8-0.8c1.9-0.8,3.4-2,4.3-3.6c1-1.6,1.5-3.5,1.5-5.7C324.3,242,323.9,240.7,323.2,239.5z"/></g><g><circle class="st2" cx="236.7" cy="252.4" r="44"/><circle class="st3" cx="236.7" cy="252.4" r="35"/><path class="st2" d="M249.3,254.3c-0.7-1.1-1.8-2.1-3.3-3c-1.4-0.8-3.3-1.6-5.5-2.2c-1.9-0.5-3.4-0.9-4.5-1.3    c-1.1-0.4-2-0.8-2.6-1.3c-0.6-0.5-1-1.2-1-2.1c0-0.9,0.4-1.7,1.3-2.3c0.9-0.6,2-0.9,3.3-0.9c1.3,0,2.3,0.2,3,0.7s1.4,1.1,2,1.9    c0.7,0.9,1.3,1.6,1.8,2.1c0.5,0.5,1.2,0.7,1.9,0.7c1,0,1.8-0.3,2.4-0.9c0.6-0.6,0.8-1.3,0.8-2.3c0-0.8-0.3-1.7-0.8-2.6    s-1.3-1.7-2.3-2.4c-1-0.7-2.3-1.3-3.8-1.7c-0.1,0-0.2-0.1-0.3-0.1V234c0-2.2-1.8-4-3.9-4s-3.9,1.8-3.9,4v2.4    c-1.1,0.2-2.2,0.5-3.1,1c-1.7,0.9-3,2-3.9,3.4s-1.3,2.9-1.3,4.6c0,1.8,0.5,3.3,1.4,4.6c0.9,1.2,2.2,2.2,3.8,3    c1.6,0.8,3.6,1.5,6.1,2.2c2.2,0.6,3.8,1.2,4.8,1.9c1,0.6,1.5,1.7,1.5,3.1c0,0.9-0.5,1.7-1.4,2.5c-0.9,0.7-2.1,1.1-3.6,1.1    c-1.8,0-3.2-0.4-4.3-1.1c-1-0.7-1.9-1.8-2.7-3.2c-0.4-0.7-0.8-1.3-1.2-1.7s-1-0.6-1.8-0.6c-0.9,0-1.6,0.3-2.2,0.9    s-0.9,1.4-0.9,2.3c0,1.3,0.5,2.6,1.3,4c0.9,1.3,2.3,2.4,4.1,3.3c0.9,0.4,2,0.8,3.1,1v2.5c0,2.2,1.8,4,3.9,4s3.9-1.8,3.9-4v-2.5    c1-0.2,1.9-0.5,2.8-0.8c1.9-0.8,3.4-2,4.3-3.6c1-1.6,1.5-3.5,1.5-5.7C250.4,256.8,250,255.4,249.3,254.3z"/></g><g><ellipse class="st2" cx="290.6" cy="291.4" rx="44" ry="44" transform="matrix(0.9949 -0.1011 0.1011 0.9949 -27.9552 30.853)"/><ellipse class="st3" cx="290.6" cy="291.4" rx="35" ry="35" transform="matrix(0.9949 -0.1011 0.1011 0.9949 -27.9552 30.853)"/><path class="st2" d="M303.3,292c-0.9-1.1-2-1.9-3.5-2.6s-3.4-1.2-5.7-1.6c-2-0.3-3.5-0.6-4.6-0.8c-1.1-0.2-2-0.6-2.7-1.1    c-0.7-0.5-1.1-1.1-1.2-2c-0.1-0.9,0.3-1.7,1.1-2.4c0.8-0.7,1.9-1.1,3.2-1.2c1.3-0.1,2.3,0,3.1,0.4c0.8,0.4,1.5,1,2.1,1.7    c0.8,0.9,1.4,1.5,2,1.9c0.6,0.4,1.2,0.6,2,0.5c1-0.1,1.8-0.5,2.3-1.1c0.5-0.6,0.7-1.4,0.6-2.3c-0.1-0.8-0.4-1.7-1-2.5    c-0.6-0.8-1.5-1.5-2.5-2.2c-1.1-0.6-2.4-1.1-3.9-1.3c-0.1,0-0.2,0-0.3,0l-0.3-2.7c-0.2-2.2-2.2-3.8-4.3-3.6s-3.7,2.2-3.5,4.3    l0.2,2.4c-1.1,0.3-2.1,0.8-3,1.3c-1.6,1-2.8,2.3-3.5,3.8s-1,3.1-0.8,4.7c0.2,1.8,0.8,3.3,1.9,4.4c1.1,1.1,2.4,2,4.1,2.6    c1.6,0.6,3.8,1.1,6.3,1.5c2.3,0.4,3.9,0.8,5,1.4c1,0.5,1.6,1.5,1.8,2.9c0.1,0.9-0.3,1.8-1.1,2.6c-0.9,0.8-2,1.3-3.5,1.4    c-1.8,0.2-3.2,0-4.3-0.6c-1.1-0.6-2.1-1.6-3-2.9c-0.4-0.7-0.9-1.2-1.3-1.6s-1.1-0.5-1.8-0.4c-0.9,0.1-1.6,0.5-2.1,1.2    c-0.5,0.7-0.7,1.5-0.6,2.3c0.1,1.3,0.7,2.6,1.7,3.8c1,1.2,2.5,2.2,4.5,2.9c1,0.3,2,0.6,3.2,0.7l0.3,2.5c0.2,2.2,2.2,3.8,4.3,3.6    c2.2-0.2,3.7-2.2,3.5-4.3l-0.3-2.5c1-0.3,1.9-0.7,2.7-1.1c1.8-1,3.1-2.3,4-4c0.8-1.7,1.1-3.6,0.9-5.8    C304.6,294.3,304.1,293,303.3,292z"/></g></g></svg>