<?xml version="1.0" ?><svg id="Layer_1" style="enable-background:new 0 0 512 512;" version="1.1" viewBox="0 0 512 512" xml:space="preserve" xmlns="http://www.w3.org/2000/svg" xmlns:xlink="http://www.w3.org/1999/xlink"><style type="text/css">
	.st0{fill:#00B25A;}
	.st1{fill:#64DD5E;}
	.st2{fill:#84C2FF;}
	.st3{fill:#FFFFFF;}
	.st4{fill:#FFC54F;}
	.st5{fill:#519FFF;}
	.st6{fill:#F2F2F3;}
	.st7{fill:#991B1E;}
	.st8{enable-background:new    ;}
	.st9{fill:#F9F9FA;}
	.st10{fill:#6B7696;}
	.st11{fill:#CD984C;}
	.st12{fill:#F9BD55;}
	.st13{fill:#FCBD60;}
	.st14{fill:#E2A54D;}
	.st15{fill:#F9E665;}
</style><g><g><g><polygon class="st0" points="157.2,293.6 266.6,82.5 365.2,133.8 255.8,344.8    "/><g><path class="st1" d="M268.6,203.8c-1.2,0.2-2.6,0.8-3.9,1.9c-1.3,1-2.7,2.4-4.3,4.1l-5.1-2.7l-0.1-0.1c0.1,0,0.2-0.1,0.4-0.2      c0.5-0.2,1-0.3,1.5-0.5c1.1-0.3,1.8-0.5,2.4-0.9c0.6-0.3,1.2-0.8,1.5-1.5c0.5-1,0.7-1.8,0.5-2.6c-0.2-0.8-0.6-1.3-1.3-1.7      l-0.1-0.1c-0.6-0.3-1.3-0.4-2.2-0.3c-0.9,0.1-1.9,0.6-2.9,1.2c-1.1,0.6-2.1,1.6-3.2,2.8c-0.3,0.4-0.7,0.8-1,1.3l-3.8-1.9      c-1.2-0.7-2.7-0.1-3.4,1.2l-0.3,0.6c-0.6,1.3-0.2,2.8,1,3.5l3.6,1.8c-0.6,1.5-1.1,3-1.2,4.5c-0.1,2,0.1,3.6,0.8,5      c0.1,0.2,0.2,0.4,0.3,0.5c0.6,1.1,1.5,2,2.6,2.5c1.4,0.7,2.8,0.9,4.2,0.5c1.4-0.4,2.8-1.1,4.2-2.3c0.1,0,0.1,0,0.2-0.2      c0.9-0.8,2-1.9,3.1-3.1l6.6,3.4c-0.3,0.4-0.6,0.6-0.9,0.8c-1.1,0.7-2.4,1.1-3.7,1.2c-0.8,0.1-1.4,0.1-1.9,0.4      c-0.5,0.2-0.9,0.7-1.3,1.4c-0.4,0.9-0.5,1.6-0.3,2.4c0.2,0.8,0.6,1.3,1.3,1.7c1,0.6,2.3,0.6,3.7,0.4c1.5-0.3,2.9-1.2,4.6-2.6      c1.1-1,2-2.1,2.9-3.5l3.7,1.9c1.2,0.7,2.7,0.1,3.4-1.2l0.3-0.5c0.6-1.3,0.2-2.8-1-3.5l-4.1-1.9c0.6-1.4,0.9-2.8,1.2-4.1      c0.3-2.1,0-3.9-0.6-5.5c-0.8-1.5-1.9-2.8-3.7-3.7c-1-0.6-2.2-0.8-3.3-0.6C268.7,203.7,268.7,203.7,268.6,203.8z M256.5,214.3      c-0.5,0.5-1.1,1-1.6,1.2c-0.7,0.4-1.4,0.4-2.1,0c-0.7-0.3-1.1-1-1.1-2.1c0-0.1,0-0.1,0-0.2c0-0.5,0.1-0.9,0.1-1.4l0.5,0.3      L256.5,214.3z M271.3,213.9c0,0.5,0,1-0.1,1.5l-5.3-2.8c0.3-0.4,0.7-0.6,1-0.8c0.9-0.7,2-0.7,3.1-0.1      C270.7,212.1,271.1,212.8,271.3,213.9z"/><path class="st1" d="M340.6,136.3l-62.8-32.6c-2.4,4.8-8.5,6.6-13.3,4.1l-87.6,169.4c4.8,2.5,6.8,8.4,4.2,13.2l62.8,32.6      c2.4-4.8,8.5-6.6,13.3-4.1c0.4,0.2,0.9,0.5,1.3,0.9l87.9-169.6c-0.4-0.2-1-0.4-1.4-0.6C340.1,147,338.2,141.1,340.6,136.3z       M231.8,287.7c-2.2,4.2-7.5,5.8-11.9,3.6c-4.4-2.3-6.1-7.5-3.9-11.8c2.2-4.2,7.5-5.8,11.9-3.6      C232.2,278.2,234,283.5,231.8,287.7z M291.6,229.3c-8.8,16.9-29.3,23.6-45.9,15c-16.6-8.6-23-29.3-14.2-46.2s29.3-23.6,45.9-15      C294,191.7,300.3,212.4,291.6,229.3z M306.4,143.8c-2.2,4.2-7.5,5.8-11.9,3.6c-4.4-2.3-6.1-7.5-3.9-11.8      c2.2-4.2,7.5-5.8,11.9-3.6C306.8,134.3,308.5,139.6,306.4,143.8z"/></g></g><g><polygon class="st0" points="178,262.6 373.1,126.8 436.5,218 241.5,353.9    "/><g><path class="st1" d="M318.4,235c-1.2-0.4-2.7-0.5-4.3-0.2c-1.6,0.2-3.5,0.9-5.7,1.7l-3.3-4.8l-0.1-0.1c0.1,0,0.2,0,0.4,0.1      c0.6,0.1,1,0.1,1.6,0.2c1.1,0.3,1.9,0.4,2.6,0.4c0.7,0,1.4-0.1,2-0.6c0.9-0.7,1.4-1.3,1.7-2s0.1-1.5-0.4-2.1l-0.1-0.1      c-0.4-0.5-1-0.9-1.9-1.3c-0.9-0.4-2-0.4-3.1-0.3c-1.3,0-2.6,0.4-4.1,1c-0.5,0.2-1,0.4-1.5,0.7l-2.5-3.4      c-0.7-1.1-2.3-1.4-3.6-0.5l-0.5,0.4c-1.1,0.9-1.5,2.4-0.7,3.5l2.4,3.3c-1.3,1.1-2.4,2.2-3.1,3.4c-1,1.7-1.6,3.2-1.6,4.8      c0,0.2-0.1,0.4,0,0.6c0,1.3,0.4,2.4,1.1,3.5c1,1.3,2.1,2.1,3.5,2.4c1.4,0.3,3,0.3,4.8-0.1c0.1,0,0.1,0,0.2-0.1      c1.2-0.3,2.6-0.8,4.2-1.3l4.2,6.1c-0.5,0.2-0.8,0.2-1.2,0.3c-1.3,0.2-2.6-0.1-3.9-0.7c-0.7-0.3-1.3-0.5-1.9-0.5      c-0.6-0.1-1.2,0.2-1.8,0.7c-0.8,0.6-1.2,1.2-1.4,2c-0.2,0.8-0.1,1.5,0.4,2.1c0.7,1,1.7,1.6,3.1,2c1.4,0.4,3.1,0.3,5.2-0.2      c1.4-0.4,2.8-1,4.2-1.8l2.4,3.4c0.7,1.1,2.3,1.4,3.6,0.5l0.5-0.3c1.1-0.9,1.5-2.4,0.7-3.5l-2.8-3.6c1.2-1,2.1-2.1,2.9-3.1      c1.3-1.7,1.9-3.5,2-5.2c0-1.7-0.4-3.4-1.6-5c-0.7-1-1.6-1.7-2.7-2.1C318.6,235,318.6,235,318.4,235z M302.8,238.7      c-0.7,0.2-1.4,0.4-2,0.3c-0.8,0-1.4-0.3-1.9-1c-0.5-0.6-0.5-1.4,0-2.4c0-0.1,0-0.1,0.1-0.2c0.2-0.4,0.4-0.7,0.7-1.1l0.3,0.5      L302.8,238.7z M316.1,245.2c-0.2,0.4-0.5,0.8-0.7,1.3l-3.4-4.9c0.5-0.2,0.9-0.2,1.3-0.3c1.2-0.2,2.1,0.3,2.8,1.3      C316.5,243.3,316.5,244.1,316.1,245.2z"/><path class="st1" d="M413.6,208.8l-40.4-58.1c-4.4,3.1-10.6,1.9-13.7-2.6L203.1,257.2c3.1,4.4,2.1,10.6-2.4,13.7l40.4,58.1      c4.4-3.1,10.6-1.9,13.7,2.6c0.3,0.4,0.6,0.9,0.7,1.3l156.7-109.2c-0.3-0.4-0.7-0.8-1-1.2C408.2,218.1,409.2,211.9,413.6,208.8z       M246.8,292.1c-3.9,2.7-9.3,1.7-12.1-2.4c-2.8-4-1.9-9.5,2-12.2c3.9-2.7,9.3-1.7,12.1,2.4C251.6,283.9,250.7,289.4,246.8,292.1z       M326.9,268.3c-15.6,10.9-37,7.2-47.6-8.1c-10.7-15.3-6.7-36.6,8.9-47.4c15.6-10.9,37-7.2,47.6,8.1      C346.5,236.2,342.5,257.4,326.9,268.3z M379.8,199.5c-3.9,2.7-9.3,1.7-12.1-2.4c-2.8-4-1.9-9.5,2-12.2c3.9-2.7,9.3-1.7,12.1,2.4      C384.6,191.3,383.7,196.8,379.8,199.5z"/></g></g><g><polygon class="st0" points="189.5,268.8 420.3,212 446.8,319.9 216,376.7    "/><g><path class="st1" d="M330.5,293.4c-1-0.8-2.3-1.4-4-1.7c-1.6-0.4-3.6-0.5-5.9-0.5l-1.4-5.7l0-0.2c0.1,0.1,0.2,0.1,0.4,0.2      c0.5,0.3,0.9,0.5,1.4,0.8c0.9,0.6,1.6,1,2.3,1.3c0.6,0.2,1.3,0.4,2.1,0.1c1.1-0.3,1.8-0.7,2.3-1.3c0.5-0.6,0.6-1.3,0.4-2.1      l0-0.2c-0.2-0.6-0.6-1.2-1.3-1.9c-0.7-0.6-1.7-1.1-2.8-1.4c-1.2-0.4-2.5-0.5-4.2-0.5c-0.5,0-1.1,0.1-1.6,0.1l-1.1-4.1      c-0.3-1.3-1.7-2.1-3.1-1.8l-0.6,0.2c-1.4,0.4-2.2,1.7-2,3l1,3.9c-1.6,0.5-3,1.2-4.1,2.1c-1.6,1.2-2.6,2.4-3.2,3.9      c-0.1,0.2-0.2,0.4-0.2,0.5c-0.4,1.2-0.5,2.4-0.2,3.6c0.4,1.5,1.2,2.7,2.4,3.5c1.2,0.8,2.7,1.4,4.5,1.6c0.1,0.1,0.1,0.1,0.3,0      c1.2,0.2,2.7,0.2,4.4,0.2l1.8,7.2c-0.5,0-0.9-0.1-1.2-0.2c-1.2-0.3-2.4-1.1-3.4-2c-0.6-0.6-1-1-1.6-1.1c-0.5-0.3-1.1-0.3-1.9,0      c-0.9,0.3-1.5,0.7-2,1.3c-0.5,0.6-0.6,1.3-0.4,2.1c0.2,1.2,1,2.1,2.2,3c1.2,0.9,2.8,1.4,5,1.7c1.5,0.2,2.9,0.1,4.6-0.1l1,4      c0.3,1.3,1.7,2.1,3.1,1.8l0.6-0.1c1.4-0.4,2.2-1.7,2-3l-1.3-4.3c1.4-0.5,2.7-1.2,3.9-1.8c1.8-1.2,3-2.6,3.7-4.1      c0.6-1.6,0.8-3.3,0.3-5.2c-0.2-1.2-0.9-2.2-1.7-2.9C330.6,293.4,330.6,293.4,330.5,293.4z M314.6,291.2c-0.8,0-1.5-0.2-1.9-0.4      c-0.7-0.3-1.2-0.8-1.4-1.6c-0.2-0.8,0.1-1.5,0.9-2.2c0.1-0.1,0.1-0.1,0.2-0.1c0.3-0.3,0.7-0.5,1.1-0.8l0.1,0.6L314.6,291.2z       M324.6,302.1c-0.3,0.3-0.7,0.6-1.1,0.9l-1.4-5.8c0.5,0,1,0.1,1.3,0.2c1.1,0.3,1.9,1,2.1,2.2      C325.6,300.5,325.4,301.2,324.6,302.1z"/><path class="st1" d="M428.7,303.1l-16.9-68.7c-5.2,1.3-10.6-2-11.9-7.3l-185.1,45.7c1.3,5.2-1.9,10.6-7.2,11.9l16.9,68.7      c5.2-1.3,10.6,2,11.9,7.3c0.1,0.5,0.2,1,0.2,1.5l185.5-45.7c-0.1-0.5-0.3-1-0.5-1.4C420.3,309.8,423.5,304.4,428.7,303.1z       M243.1,321c-4.6,1.1-9.3-1.8-10.5-6.6c-1.2-4.8,1.6-9.6,6.3-10.7c4.6-1.1,9.3,1.8,10.5,6.6C250.5,315.1,247.7,319.9,243.1,321z       M326.4,327.5c-18.5,4.5-37.1-6.5-41.6-24.7c-4.5-18.2,6.9-36.5,25.4-41.1c18.5-4.5,37.1,6.5,41.6,24.7      C356.3,304.6,344.9,323,326.4,327.5z M400.5,282.3c-4.6,1.1-9.3-1.8-10.5-6.6c-1.2-4.8,1.6-9.6,6.3-10.7      c4.6-1.1,9.3,1.8,10.5,6.6C407.9,276.3,405.1,281.1,400.5,282.3z"/></g></g></g><path class="st2" d="M224.3,385.2H81.1c-8.8,0-15.9-7.1-15.9-15.9V157.6c0-8.8,7.1-15.9,15.9-15.9h143.2c8.8,0,15.9,7.1,15.9,15.9   v211.7C240.2,378.1,233,385.2,224.3,385.2z"/><rect class="st3" height="71.4" width="142" x="81.7" y="156.8"/><rect class="st4" height="52.6" width="54.3" x="81.7" y="250.3"/><rect class="st5" height="52.6" width="54.3" x="169.4" y="250.3"/><rect class="st6" height="52.6" width="54.3" x="169.4" y="317.7"/><rect class="st7" height="52.6" width="54.3" x="81.7" y="317.7"/><g class="st8"><path class="st9" d="M183.2,279.7v-6.1h26.8v6.1H183.2z"/></g><g class="st8"><path class="st10" d="M209.9,342.5h-26.8v-4.4h26.8V342.5z M209.9,350h-26.8v-4.4h26.8V350z"/></g><g class="st8"><path class="st11" d="M111.9,286.9h-6.1v-7.6h-9V274h9v-7.7h6.1v7.7h9.1v5.2h-9.1V286.9z"/></g><g class="st8"><path class="st3" d="M100.9,356.9l-5-5l7.8-7.7l-7.4-7.4l5.3-5.3l7.4,7.4l7.8-7.7l5,5l-7.8,7.7l7.4,7.5l-5.3,5.3l-7.4-7.5    L100.9,356.9z"/></g><g><path class="st12" d="M300.2,320.6v89.5c0,8.7-15.6,15.8-35.9,17h-11.7c-20.3-1.1-35.9-8.3-35.9-17v-89.5    c0-9.5,18.7-17.2,41.8-17.2S300.2,311,300.2,320.6z"/><path class="st13" d="M300.8,320.9c0,9.7-18.8,17.6-42.1,17.6c-23.3,0-42.1-7.9-42.1-17.6c0-9.7,18.8-17.6,42.1-17.6    C281.9,303.3,300.8,311.3,300.8,320.9z"/><g><path class="st14" d="M300.2,392.7v6.1c-3.7,7.8-20.8,13.7-41.4,13.7c-23.3,0-42.2-7.5-42.2-16.7c0-0.6,0.1-1.2,0.2-1.8     c2.2,8.6,20,15.3,41.6,15.3C281.2,409.4,299.6,401.9,300.2,392.7L300.2,392.7z"/><path class="st14" d="M300.2,373.7v6.1c-3.7,7.8-20.8,13.7-41.4,13.7c-23.3,0-42.2-7.5-42.2-16.7c0-0.6,0.1-1.2,0.2-1.8     c2.2,8.6,20,15.3,41.6,15.3C281.2,390.3,299.6,382.9,300.2,373.7L300.2,373.7z"/><path class="st14" d="M300.2,354.7v6.1c-3.7,7.8-20.8,13.7-41.4,13.7c-23.3,0-42.2-7.5-42.2-16.7c0-0.6,0.1-1.2,0.2-1.8     c2.2,8.6,20,15.3,41.6,15.3C281.2,371.4,299.6,363.9,300.2,354.7L300.2,354.7z"/><path class="st14" d="M300.2,335.7v6.1c-3.7,7.8-20.8,13.7-41.4,13.7c-23.3,0-42.2-7.5-42.2-16.7c0-0.6,0.1-1.2,0.2-1.8     c2.2,8.6,20,15.3,41.6,15.3C281.2,352.3,299.6,344.9,300.2,335.7L300.2,335.7z"/></g><g><path class="st14" d="M258.4,308.5c-18,0-32.2,5.3-32.2,12c0,6.7,14.1,12,32.2,12c18.1,0,32.2-5.3,32.2-12     C290.6,313.8,276.4,308.5,258.4,308.5z M258.4,330.9c-16.5,0-30.4-4.7-30.4-10.4c0-5.6,14-10.4,30.4-10.4     c16.5,0,30.4,4.7,30.4,10.4C288.9,326.2,274.9,330.9,258.4,330.9z"/><path class="st14" d="M266.7,321.4c-0.5-0.4-1.3-0.7-2.3-0.9c-1-0.2-2.3-0.5-3.8-0.6l-0.1-2.3c0.4,0.2,0.7,0.3,1,0.5     c0.5,0.3,0.9,0.5,1.3,0.7c0.4,0.2,0.8,0.2,1.4,0.2c0.8,0,1.3-0.2,1.7-0.3c0.4-0.2,0.6-0.5,0.5-0.8c0-0.3-0.2-0.5-0.6-0.8     c-0.4-0.3-0.9-0.5-1.6-0.8c-0.7-0.2-1.6-0.4-2.7-0.5c-0.3,0-0.7-0.1-1.1-0.1l-0.1-1.6c0-0.5-0.8-0.9-1.8-0.9h-0.4     c-1,0-1.8,0.5-1.8,1l0.1,1.6c-1.1,0.1-2.1,0.2-3,0.5c-1.2,0.3-2.1,0.8-2.7,1.2c-0.6,0.5-0.9,1-0.9,1.6c0,0.6,0.4,1.1,1.1,1.5     c0.7,0.4,1.6,0.7,2.7,0.9c0.8,0.2,1.8,0.3,3,0.5l0.1,2.9c-0.3-0.1-0.5-0.1-0.8-0.2c-0.8-0.2-1.4-0.5-1.9-1.1     c-0.3-0.2-0.5-0.5-0.8-0.5c-0.3-0.2-0.7-0.2-1.2-0.2c-0.6,0-1.1,0.2-1.5,0.4c-0.4,0.2-0.6,0.5-0.6,0.8c0,0.5,0.3,0.9,1,1.3     c0.6,0.5,1.6,0.8,3,1.1c0.9,0.2,1.9,0.3,3,0.3l0.1,1.6c0,0.5,0.8,0.9,1.8,0.9h0.4c1,0,1.8-0.5,1.8-1l-0.1-1.6     c1-0.1,2-0.2,2.7-0.4c1.4-0.3,2.4-0.8,3.1-1.3c0.7-0.5,1-1.2,1-2S267.2,321.8,266.7,321.4z M255.5,319c-0.5-0.2-0.7-0.4-0.7-0.7     s0.3-0.6,0.9-0.8c0.3-0.1,0.6-0.2,1-0.2l0.1,2.1C256.2,319.3,255.8,319.2,255.5,319z M261.6,324.3c-0.2,0.1-0.5,0.2-0.8,0.2     l-0.1-2.3c0.3,0.1,0.6,0.2,0.8,0.2c0.7,0.2,1.1,0.5,1.1,1C262.5,323.8,262.2,324,261.6,324.3z"/></g><path class="st12" d="M391.1,378.4v17.4c0,8.7-15.8,15.8-36.3,17h-11.8c-20.5-1.1-36.3-8.3-36.3-17v-14.6c3.7,7.9,21,14,41.8,14    c10.1,0,19.5-1.5,26.8-3.9c2.4-0.8,4.5-1.6,6.4-2.6c0.4-0.2,0.8-0.4,1.2-0.6c1.4-0.8,2.6-1.6,3.7-2.4c0.5-0.4,0.9-0.7,1.3-1.1    C389.8,382.7,390.9,380.6,391.1,378.4z"/><g><path class="st14" d="M391.1,378.4v6.1c-3.7,7.8-21.1,13.6-42.2,13.6c-21,0-38.4-5.8-42.2-13.6c0-0.1-0.1-0.1-0.1-0.2v-3.3     c3.7,7.9,21,14,41.8,14c10.1,0,19.5-1.5,26.8-3.9c2.4-0.8,4.5-1.6,6.4-2.6c0.4-0.2,0.8-0.4,1.2-0.6c1.4-0.8,2.6-1.6,3.7-2.4     c0.5-0.4,0.9-0.7,1.3-1.1C389.8,382.7,390.9,380.6,391.1,378.4z"/></g><path class="st12" d="M390.8,363.7v15.3c0,0,0,0,0-0.1c-0.6,9.3-19.4,16.8-42.4,16.7c-20.7-0.1-37.9-6.1-41.6-14.1v-18    c0-9.3,17.8-16.9,40.1-17.2c0.7,0,1.4,0,2.2,0c0.3,0,0.5,0,0.8,0C372.6,346.6,390.8,354.3,390.8,363.7z"/><path class="st13" d="M391.4,364.1c0,9.8-19,17.7-42.3,17.6c-23.3-0.1-42.2-8-42.2-17.8c0-9.8,19-17.7,42.3-17.6    C372.4,346.3,391.4,354.3,391.4,364.1z"/><g><path class="st14" d="M348.8,351.5c-18.1-0.1-32.4,5.2-32.4,12c-0.1,6.8,14.2,12.1,32.3,12.1c18.2,0,32.4-5.3,32.4-12     C381.2,356.9,367,351.5,348.8,351.5z M348.8,374c-16.6-0.1-30.6-4.9-30.6-10.5c0-5.6,14-10.4,30.6-10.4     c16.5,0,30.6,4.8,30.6,10.5C379.4,369.3,365.4,374.1,348.8,374z"/><path class="st14" d="M357,364.5c-0.5-0.4-1.3-0.7-2.4-1c-1-0.2-2.3-0.5-3.8-0.6l-0.1-2.4c0.4,0.2,0.7,0.3,1,0.5     c0.5,0.3,0.9,0.5,1.3,0.7c0.4,0.2,0.8,0.2,1.4,0.2c0.8,0,1.3-0.2,1.7-0.3c0.4-0.2,0.6-0.5,0.6-0.8c0-0.3-0.2-0.6-0.6-0.8     c-0.4-0.3-0.9-0.5-1.7-0.8c-0.7-0.2-1.6-0.4-2.7-0.5c-0.3,0-0.7-0.1-1.1-0.1l-0.1-1.7c0-0.5-0.8-0.9-1.8-0.9h-0.4     c-1,0-1.8,0.5-1.8,1v1.6c-1.1,0.1-2.1,0.2-3,0.5c-1.2,0.3-2.1,0.8-2.7,1.2c-0.6,0.5-0.9,1-0.9,1.6s0.4,1.1,1.1,1.5     c0.7,0.4,1.6,0.7,2.7,1c0.8,0.2,1.8,0.3,3,0.5l0.1,2.9c-0.3-0.1-0.5-0.1-0.8-0.2c-0.8-0.2-1.4-0.6-1.9-1.1     c-0.3-0.2-0.5-0.5-0.8-0.6c-0.3-0.2-0.7-0.2-1.2-0.2c-0.6,0-1.1,0.2-1.5,0.4c-0.4,0.2-0.6,0.5-0.6,0.8c0,0.5,0.3,0.9,1,1.4     c0.6,0.5,1.6,0.8,3,1.1c0.9,0.2,1.9,0.3,3.1,0.3v1.6c0,0.5,0.8,0.9,1.8,0.9h0.4c1,0,1.8-0.5,1.8-1v-1.6c1-0.1,2-0.2,2.7-0.4     c1.4-0.3,2.4-0.8,3.1-1.3c0.7-0.5,1-1.2,1-2C357.9,365.3,357.6,364.9,357,364.5z M345.8,362c-0.5-0.2-0.7-0.4-0.7-0.7     c0-0.3,0.3-0.6,0.9-0.8c0.3-0.1,0.6-0.2,1-0.2l0.1,2.1C346.5,362.3,346.1,362.2,345.8,362z M351.9,367.4     c-0.2,0.1-0.5,0.2-0.8,0.2l-0.1-2.4c0.3,0.1,0.6,0.2,0.8,0.2c0.7,0.2,1.1,0.5,1.1,1C352.8,366.8,352.5,367.1,351.9,367.4z"/></g><path class="st12" d="M354.5,340.4l-5.3,14.1c0,0,0,0,0-0.1c-3.8,8.5-23.9,8.8-45.3,0.7c-19.2-7.2-33.2-18.9-33.9-27.7l6.3-16.7    c3.3-8.6,22.5-9.4,43.4-1.9c0.7,0.2,1.4,0.5,2.1,0.8c0.2,0.1,0.5,0.2,0.8,0.3C343.5,318.1,357.8,331.6,354.5,340.4z"/><path class="st13" d="M354.9,340.9c-3.4,9.1-23.9,9.8-45.5,1.6c-21.7-8.2-36.6-22.2-33.2-31.3c3.4-9.1,23.9-9.8,45.6-1.6    C343.5,317.8,358.3,331.9,354.9,340.9z"/><g><path class="st14" d="M319.7,314.4c-16.9-6.4-32-6.5-34.4-0.2c-2.4,6.3,9,16.2,25.9,22.6c16.9,6.4,32,6.5,34.4,0.2     C348,330.7,336.6,320.8,319.7,314.4z M343.9,336.4c-2,5.3-16.7,4.7-32.1-1.1c-15.4-5.8-26.8-15.2-24.8-20.4     c2-5.3,16.7-4.7,32.1,1.1C334.5,321.7,345.8,331.1,343.9,336.4z"/><path class="st14" d="M322.5,323.5c-0.6-0.5-1.4-0.9-2.3-1.4c-0.3-0.2-0.6-0.3-0.9-0.5l0.5-1.5c0.2-0.5-0.5-1.1-1.4-1.4l-0.4-0.2     c-0.9-0.3-1.8-0.2-2,0.3l-0.5,1.4c-1.1-0.3-2.1-0.5-3-0.6c-1.2-0.2-2.2-0.1-3,0.2c-0.8,0.2-1.2,0.6-1.4,1.1     c-0.2,0.6-0.1,1.1,0.5,1.8c0.5,0.6,1.2,1.2,2.2,1.8c0.7,0.5,1.6,0.9,2.6,1.5l-0.9,2.7c-0.2-0.2-0.5-0.3-0.7-0.5     c-0.6-0.5-1.1-1-1.4-1.7c-0.2-0.3-0.4-0.6-0.6-0.8c-0.2-0.2-0.6-0.5-1.1-0.6c-0.6-0.2-1.1-0.3-1.5-0.2c-0.5,0.1-0.7,0.2-0.8,0.5     c-0.2,0.5,0,0.9,0.5,1.6c0.5,0.6,1.2,1.3,2.4,2c0.8,0.5,1.7,0.9,2.7,1.4l-0.5,1.5c-0.2,0.5,0.5,1.1,1.4,1.4l0.4,0.2     c0.9,0.3,1.8,0.2,2-0.3l0.5-1.5c1,0.3,1.9,0.5,2.7,0.6c1.4,0.2,2.4,0.2,3.3-0.2c0.8-0.3,1.4-0.8,1.6-1.4c0.1-0.5-0.1-1-0.4-1.5     c-0.4-0.5-1-1.1-1.8-1.7c-0.8-0.6-2-1.2-3.4-1.9l0.8-2.2c0.3,0.2,0.5,0.5,0.8,0.8c0.4,0.5,0.7,0.8,1,1.1c0.3,0.3,0.7,0.5,1.2,0.7     c0.7,0.2,1.2,0.3,1.7,0.3c0.5-0.1,0.7-0.2,0.8-0.5c0.1-0.3,0-0.6-0.2-1S323,324,322.5,323.5z M314.3,323.8     c-0.5-0.2-0.8-0.4-1.1-0.6c-0.4-0.3-0.5-0.6-0.4-0.9c0.1-0.3,0.5-0.5,1.1-0.5c0.3,0,0.6,0.1,1,0.1L314.3,323.8z M318.2,329.6     c0,0.4-0.5,0.5-1.1,0.5c-0.3,0-0.6,0-0.9-0.1l0.8-2.2c0.3,0.2,0.5,0.3,0.7,0.5C318.2,328.8,318.3,329.2,318.2,329.6z"/></g></g><g><path class="st15" d="M303.8,429.5"/></g></g></svg>