<?xml version="1.0" ?><svg xmlns="http://www.w3.org/2000/svg" xmlns:xlink="http://www.w3.org/1999/xlink" version="1.1" viewBox="0 0 94 94" style="enable-background:new 0 0 94 94;" xml:space="preserve"><style type="text/css">
	.st0{display:none;}
	.st1{display:inline;fill:#FEA900;}
	.st2{display:inline;}
	.st3{display:inline;fill:#F9CD6C;}
	.st4{display:inline;fill:none;stroke:#000000;stroke-width:0.25;stroke-miterlimit:10;}
	.st5{stroke:#000000;stroke-linecap:round;stroke-linejoin:round;stroke-miterlimit:10;}
	.st6{opacity:0.2;stroke:#000000;stroke-linecap:round;stroke-linejoin:round;stroke-miterlimit:10;}
	.st7{fill:#F12A00;stroke:#000000;stroke-linecap:round;stroke-linejoin:round;stroke-miterlimit:10;}
	.st8{fill:#FBECCF;stroke:#000000;stroke-linecap:round;stroke-linejoin:round;stroke-miterlimit:10;}
	.st9{opacity:0.2;fill:#F12A00;}
	.st10{fill:#F7C86C;stroke:#000000;stroke-linecap:round;stroke-linejoin:round;stroke-miterlimit:10;}
	.st11{fill:none;stroke:#000000;stroke-linecap:round;stroke-linejoin:round;stroke-miterlimit:10;}
	.st12{display:inline;stroke:#000000;stroke-linecap:round;stroke-linejoin:round;stroke-miterlimit:10;}
	.st13{fill:#FAAC01;stroke:#000000;stroke-linecap:round;stroke-linejoin:round;stroke-miterlimit:10;}
	.st14{fill:#FAAC01;}
	.st15{display:inline;fill:#FAEBCE;stroke:#000000;stroke-width:0.25;stroke-miterlimit:10;}
	.st16{display:inline;fill:none;stroke:#000000;stroke-width:1.0164;stroke-miterlimit:10;}
	.st17{display:inline;fill:#FAEBCE;stroke:#000000;stroke-width:1.0164;stroke-miterlimit:10;}
	.st18{fill:#FEA900;}
	.st19{fill:#F9CD6C;}
	.st20{fill:none;stroke:#000000;stroke-width:1.0164;stroke-miterlimit:10;}
	.st21{fill:#FAEBCE;stroke:#000000;stroke-width:1.0164;stroke-miterlimit:10;}
	.st22{display:inline;fill:#FAEBCE;}
	.st23{fill:#008FF5;stroke:#000000;stroke-linecap:round;stroke-linejoin:round;stroke-miterlimit:10;}
	.st24{fill:#D0E6FB;stroke:#000000;stroke-linecap:round;stroke-linejoin:round;stroke-miterlimit:10;}
	.st25{fill:#FFFFFF;stroke:#000000;stroke-linecap:round;stroke-linejoin:round;stroke-miterlimit:10;}
	.st26{fill:#75D95D;stroke:#000000;stroke-linecap:round;stroke-linejoin:round;stroke-miterlimit:10;}
	.st27{fill:#CAF3BB;}
	.st28{fill:#FFFFFF;}
	.st29{fill:#CAF3BB;stroke:#000000;stroke-linecap:round;stroke-linejoin:round;stroke-miterlimit:10;}
	.st30{display:inline;fill:#D0E6FB;stroke:#000000;stroke-linecap:round;stroke-linejoin:round;stroke-miterlimit:10;}
	.st31{stroke:#FFFFFF;stroke-linecap:round;stroke-linejoin:round;stroke-miterlimit:10;}
	.st32{fill:#B4B2FB;stroke:#000000;stroke-linecap:round;stroke-linejoin:round;stroke-miterlimit:10;}
	.st33{fill:#018BEE;}
	.st34{display:inline;fill:none;stroke:#000000;stroke-linecap:round;stroke-linejoin:round;stroke-miterlimit:10;}
	.st35{fill:#75D95D;}
	.st36{fill:#4949F7;stroke:#000000;stroke-linecap:round;stroke-linejoin:round;stroke-miterlimit:10;}
	.st37{fill:#D0E6FB;}
	.st38{fill:#6FBBF7;stroke:#000000;stroke-linecap:round;stroke-linejoin:round;stroke-miterlimit:10;}
	.st39{fill:#018BEE;stroke:#000000;stroke-linecap:round;stroke-linejoin:round;stroke-miterlimit:10;}
	.st40{fill:#B4B2FB;}
	.st41{fill:#E8E9FE;}
	.st42{fill:#B4B2FB;stroke:#000F24;stroke-miterlimit:10;}
	.st43{stroke:#000000;stroke-miterlimit:10;}
	.st44{fill:#E8E9FE;stroke:#000000;stroke-linecap:round;stroke-linejoin:round;stroke-miterlimit:10;}
	.st45{opacity:0.3;fill:#018BEE;}
	.st46{fill:#6FBBF7;}
	.st47{fill:#FAAC01;stroke:#FFFFFF;stroke-linecap:round;stroke-linejoin:round;stroke-miterlimit:10;}
	.st48{fill:#006A2F;}
	.st49{opacity:0.1;}
	.st50{fill:#FCD4CA;stroke:#000000;stroke-linecap:round;stroke-linejoin:round;stroke-miterlimit:10;}
	.st51{fill:#006A2F;stroke:#000000;stroke-linecap:round;stroke-linejoin:round;stroke-miterlimit:10;}
	.st52{fill:#4949F7;}
	.st53{fill:#F12A00;}
	.st54{fill:#D0E6FB;stroke:#018BEE;stroke-linecap:round;stroke-linejoin:round;stroke-miterlimit:10;}
	.st55{fill:#9CD7FF;}
	.st56{fill:#F7C86C;}
	.st57{opacity:0.3;stroke:#000000;stroke-linecap:round;stroke-linejoin:round;stroke-miterlimit:10;}
	.st58{opacity:0.1;stroke:#000000;stroke-linecap:round;stroke-linejoin:round;stroke-miterlimit:10;}
	.st59{opacity:0.3;fill:#006A2F;}
	.st60{stroke:#000000;stroke-width:1.0825;stroke-linecap:round;stroke-linejoin:round;stroke-miterlimit:10;}
	.st61{fill:#D0E6FB;stroke:#000000;stroke-width:1.0825;stroke-linecap:round;stroke-linejoin:round;stroke-miterlimit:10;}
	.st62{fill:#6FBBF7;stroke:#000000;stroke-width:1.0825;stroke-linecap:round;stroke-linejoin:round;stroke-miterlimit:10;}
	.st63{fill:none;stroke:#000000;stroke-width:1.0825;stroke-linecap:round;stroke-linejoin:round;stroke-miterlimit:10;}
	.st64{fill:#CAF3BB;stroke:#000000;stroke-width:0.7876;stroke-linecap:round;stroke-linejoin:round;stroke-miterlimit:10;}
	.st65{fill:#6FBBF7;stroke:#FFFFFF;stroke-linecap:round;stroke-linejoin:round;stroke-miterlimit:10;}
	.st66{opacity:0.2;}
	.st67{stroke:#E8E9FE;stroke-linecap:round;stroke-linejoin:round;stroke-miterlimit:10;}
	.st68{fill:#FCD4CA;}
	.st69{fill:#FBECCF;}
	.st70{opacity:0.1;fill:#F12A00;}
	.st71{opacity:0.5;stroke:#000000;stroke-linecap:round;stroke-linejoin:round;stroke-miterlimit:10;}
	.st72{fill:#6FBBF7;stroke:#E8E9FE;stroke-linecap:round;stroke-linejoin:round;stroke-miterlimit:10;}
	.st73{opacity:0.5;fill:#D0E6FB;}
	.st74{fill:#70BAF7;}
	.st75{fill:none;stroke:#FFFFFF;stroke-linecap:round;stroke-linejoin:round;stroke-miterlimit:10;}
	.st76{fill:#70BAF7;stroke:#70BAF7;stroke-linecap:round;stroke-linejoin:round;stroke-miterlimit:10;}
	.st77{fill:#018BEE;stroke:#018BEE;stroke-linecap:round;stroke-linejoin:round;stroke-miterlimit:10;}
	.st78{fill:#70BAF7;stroke:#000000;stroke-linecap:round;stroke-linejoin:round;stroke-miterlimit:10;}
	.st79{fill:#F9CD6C;stroke:#000000;stroke-linecap:round;stroke-linejoin:round;stroke-miterlimit:10;}
	.st80{fill:none;}
	.st81{fill:#006A2F;stroke:#006A2F;stroke-miterlimit:10;}
	.st82{fill:#B4DFFC;}
	.st83{fill:#6FBBF7;stroke:#018BEE;stroke-linecap:round;stroke-linejoin:round;stroke-miterlimit:10;}
	.st84{fill:none;stroke:#FBECCF;stroke-linecap:round;stroke-linejoin:round;stroke-miterlimit:10;}
	.st85{fill:none;stroke:#018BEE;stroke-linecap:round;stroke-linejoin:round;stroke-miterlimit:10;}
	.st86{fill:#010101;stroke:#FFFFFF;stroke-linecap:round;stroke-linejoin:round;stroke-miterlimit:10;}
	.st87{fill:#010101;stroke:#000000;stroke-linecap:round;stroke-linejoin:round;stroke-miterlimit:10;}
	.st88{fill:#75D95D;stroke:#FFFFFF;stroke-linecap:round;stroke-linejoin:round;stroke-miterlimit:10;}
	.st89{fill:#94F279;stroke:#000000;stroke-linecap:round;stroke-linejoin:round;stroke-miterlimit:10;}
	.st90{fill:#8C8CF9;}
	.st91{fill:#008FF5;}
	.st92{fill:#8CD8F9;}
	.st93{fill:#FFC043;}
	.st94{fill:#94F279;}
	.st95{fill:#FF3D1D;}
	.st96{fill:#31B1FF;}
	.st97{fill:#FFCF7B;}
	.st98{fill:#B2FF99;}
	.st99{fill:#D7D7FF;}
	.st100{fill:#FF7C6E;}
	.st101{fill:#5CC9FF;}
	.st102{fill:#F12A00;stroke:#FFFFFF;stroke-linecap:round;stroke-linejoin:round;stroke-miterlimit:10;}
	.st103{fill:#F7C86C;stroke:#000000;stroke-width:1.0164;stroke-miterlimit:10;}
</style><g id="Refrences" class="st0"/><g id="Tittle"/><g id="Icons"><g><g><path class="st5" d="M49.03,28.34c-0.23,0-0.45,0.01-0.67,0.02v59.01h14.32c1.51,0,2.97-0.5,4.11-1.42     c7.26-5.83,11.98-15.12,11.98-25.62C78.76,42.66,65.45,28.34,49.03,28.34z"/><path class="st5" d="M61,31.04c15.44,32.63,11.77,50.37-12.64,51.95v4.37h14.32c1.51,0,2.97-0.5,4.11-1.42     c7.26-5.83,11.98-15.12,11.98-25.62C78.76,47.24,71.46,36,61,31.04z"/><path class="st5" d="M48.36,52.84c0.22-0.06,0.44-0.1,0.67-0.1c1.48,0,2.67,1.2,2.67,2.67c0,0.83,0.67,1.5,1.5,1.5     c0.83,0,1.5-0.67,1.5-1.5c0-2.61-1.78-4.79-4.18-5.45v-0.95c0-0.83-0.67-1.5-1.5-1.5c-0.24,0-0.47,0.06-0.67,0.17V52.84z"/><path class="st5" d="M49.03,58.09c-0.23,0-0.46-0.04-0.67-0.1v3.03c0.22,0.03,0.44,0.07,0.67,0.07c1.48,0,2.67,1.2,2.67,2.67     c0,1.47-1.2,2.67-2.67,2.67c-0.23,0-0.46-0.04-0.67-0.1v5.15c0.2,0.1,0.43,0.17,0.67,0.17c0.83,0,1.5-0.67,1.5-1.5v-0.95     c2.4-0.66,4.18-2.84,4.18-5.45C54.7,60.64,52.16,58.09,49.03,58.09z"/><path class="st5" d="M49.03,28.34c-0.23,0-0.45,0.01-0.67,0.02v59.01h14.32c1.51,0,2.97-0.5,4.11-1.42     c7.26-5.83,11.98-15.12,11.98-25.62C78.76,42.66,65.45,28.34,49.03,28.34z"/><path class="st5" d="M62.6,6.77l-1.76-0.12c-1.85-0.13-3.58,0.75-4.27,2.16l-0.55,1.13c-0.28,0.57-0.95,0.94-1.7,0.94h-1.29     c-0.85,0-1.59-0.48-1.78-1.16l-0.31-1.1c-0.26-0.93-1.27-1.58-2.44-1.58h-0.14v15.54l9.79,0.11L64.9,9.91     C65.64,8.49,64.47,6.9,62.6,6.77z"/><path class="st5" d="M62.6,6.77l-1.76-0.12c-1.85-0.13-3.58,0.75-4.27,2.16l-0.55,1.13c-0.11,0.22-0.28,0.39-0.48,0.54     c2.26,3-1.62,6.52-7.18,7.89v4.2l9.79,0.11L64.9,9.91C65.64,8.49,64.47,6.9,62.6,6.77z"/><path class="st5" d="M62.6,6.77l-1.76-0.12c-1.85-0.13-3.58,0.75-4.27,2.16l-0.55,1.13c-0.28,0.57-0.95,0.94-1.7,0.94h-1.29     c-0.85,0-1.59-0.48-1.78-1.16l-0.31-1.1c-0.26-0.93-1.27-1.58-2.44-1.58h-0.14v15.54l9.79,0.11L64.9,9.91     C65.64,8.49,64.47,6.9,62.6,6.77z"/><g><path class="st5" d="M59.13,27.39l-0.16-0.31c-0.19-0.38-0.48-0.69-0.83-0.78c-3.71-0.99-7.02-1.28-9.79-1.25v4.45      c3.62,0.1,7.15,0.4,9.49,0.65C59,30.26,59.75,28.64,59.13,27.39z"/><path class="st5" d="M59.13,23.77l-0.16-0.31c-0.19-0.38-0.48-0.69-0.83-0.78c-3.71-0.99-7.02-1.28-9.79-1.25v4.45      c3.62,0.1,7.15,0.4,9.49,0.65C59,26.64,59.75,25.02,59.13,23.77z"/><path class="st5" d="M54.06,29.8c0,0,6.17,3.11,6.9,10.88c0.14,1.54-0.56,3.01-1.69,3.51h0c-1.49,0.66-3.08-0.58-3.32-2.58      c-0.44-3.65-1.53-8.73-4.27-10.07"/><path class="st5" d="M50.24,29.8c0,0-0.82,0.42-1.89,1.31V41.6c0,0,0,0,0,0c0.44-3.65,1.53-8.73,4.27-10.07L50.24,29.8z"/><ellipse class="st5" cx="51.68" cy="28.37" rx="2.65" ry="3.32"/></g></g><g><path class="st38" d="M33.36,87.36h27.3c1.51,0,2.97-0.5,4.11-1.42c7.26-5.83,11.98-15.12,11.98-25.62     c0-17.67-13.31-31.99-29.74-31.99c-16.42,0-29.74,14.32-29.74,31.99c0,10.5,4.72,19.79,11.98,25.62     C30.39,86.86,31.85,87.36,33.36,87.36z"/><path class="st33" d="M58.98,31.04c19.24,40.66,8.83,58.23-34.45,50.17c1.41,1.75,2.99,3.34,4.72,4.73     c1.14,0.91,2.6,1.42,4.11,1.42h27.3c1.51,0,2.97-0.5,4.11-1.42c7.26-5.83,11.98-15.12,11.98-25.62     C76.74,47.24,69.44,36,58.98,31.04z"/><path class="st25" d="M47.01,58.09c-1.47,0-2.67-1.2-2.67-2.67s1.2-2.67,2.67-2.67c1.48,0,2.67,1.2,2.67,2.67     c0,0.83,0.67,1.5,1.5,1.5c0.83,0,1.5-0.67,1.5-1.5c0-2.61-1.78-4.79-4.18-5.45v-0.95c0-0.83-0.67-1.5-1.5-1.5     c-0.83,0-1.5,0.67-1.5,1.5v0.95c-2.4,0.66-4.17,2.84-4.17,5.45c0,3.13,2.55,5.68,5.68,5.68c1.48,0,2.67,1.2,2.67,2.67     c0,1.47-1.2,2.67-2.67,2.67c-1.47,0-2.67-1.2-2.67-2.67c0-0.83-0.67-1.5-1.5-1.5c-0.83,0-1.5,0.67-1.5,1.5     c0,2.61,1.78,4.79,4.17,5.45v0.95c0,0.83,0.67,1.5,1.5,1.5c0.83,0,1.5-0.67,1.5-1.5v-0.95c2.4-0.66,4.18-2.84,4.18-5.45     C52.68,60.64,50.14,58.09,47.01,58.09z"/><path class="st11" d="M33.36,87.36h27.3c1.51,0,2.97-0.5,4.11-1.42c7.26-5.83,11.98-15.12,11.98-25.62     c0-17.67-13.31-31.99-29.74-31.99c-16.42,0-29.74,14.32-29.74,31.99c0,10.5,4.72,19.79,11.98,25.62     C30.39,86.86,31.85,87.36,33.36,87.36z"/><path class="st38" d="M38.57,22.48l-7.7-12c-0.4-0.63,0-1.4,0.83-1.6c1.71-0.42,4.55-0.6,6.86,1.7c2.42,2.41,3.53-0.09,3.99-1.95     c0.23-0.94,1.27-1.6,2.44-1.6h1.47c1.16,0,2.18,0.66,2.44,1.58l0.31,1.1c0.19,0.68,0.93,1.16,1.78,1.16h1.29     c0.75,0,1.42-0.37,1.7-0.94l0.55-1.13c0.69-1.41,2.42-2.28,4.27-2.16l1.76,0.12c1.88,0.13,3.05,1.72,2.3,3.14l-6.75,12.77     L38.57,22.48z"/><path class="st33" d="M60.58,6.77l-1.76-0.12c-1.85-0.13-3.58,0.75-4.27,2.16l-0.55,1.13c-0.11,0.22-0.28,0.39-0.48,0.54     c3.59,4.77-8.33,10.87-17.84,7.49l2.89,4.51l17.56,0.19l6.75-12.77C63.62,8.49,62.45,6.9,60.58,6.77z"/><path class="st11" d="M38.57,22.48l-7.7-12c-0.4-0.63,0-1.4,0.83-1.6c1.71-0.42,4.55-0.6,6.86,1.7c2.42,2.41,3.53-0.09,3.99-1.95     c0.23-0.94,1.27-1.6,2.44-1.6h1.47c1.16,0,2.18,0.66,2.44,1.58l0.31,1.1c0.19,0.68,0.93,1.16,1.78,1.16h1.29     c0.75,0,1.42-0.37,1.7-0.94l0.55-1.13c0.69-1.41,2.42-2.28,4.27-2.16l1.76,0.12c1.88,0.13,3.05,1.72,2.3,3.14l-6.75,12.77     L38.57,22.48z"/><ellipse transform="matrix(0.7071 -0.7071 0.7071 0.7071 -21.8413 33.4517)" class="st55" cx="29.46" cy="43.09" rx="6.74" ry="3.81"/><g><path class="st13" d="M38.23,29.77c5.57-0.7,13.44-0.07,17.59,0.37c1.15,0.12,1.91-1.5,1.29-2.75l-0.16-0.31      c-0.19-0.38-0.48-0.69-0.83-0.78c-9.84-2.61-16.85-0.39-18.49-0.01c-0.29,0.07-0.5,0.33-0.68,0.63l0,0      C36.23,28.17,37.01,29.93,38.23,29.77z"/><path class="st13" d="M38.23,26.15c5.57-0.7,13.44-0.07,17.59,0.37c1.15,0.12,1.91-1.5,1.29-2.75l-0.16-0.31      c-0.19-0.38-0.48-0.69-0.83-0.78c-9.84-2.61-16.85-0.39-18.49-0.01c-0.29,0.07-0.5,0.33-0.68,0.63l0,0      C36.23,24.55,37.01,26.31,38.23,26.15z"/><path class="st13" d="M52.04,29.8c0,0,6.17,3.11,6.9,10.88c0.14,1.54-0.56,3.01-1.69,3.51h0c-1.49,0.66-3.08-0.58-3.32-2.58      c-0.44-3.65-1.53-8.73-4.27-10.07"/><path class="st13" d="M48.22,29.8c0,0-6.17,3.11-6.9,10.88c-0.14,1.54,0.56,3.01,1.69,3.51h0c1.49,0.66,3.08-0.58,3.32-2.58      c0.44-3.65,1.53-8.73,4.27-10.07"/><ellipse class="st7" cx="49.65" cy="28.37" rx="2.65" ry="3.32"/></g></g><g><path class="st33" d="M30.61,77.5v3.03c0,0.68-0.56,1.23-1.24,1.23h-5.31c-0.18-0.25-0.41-0.53-0.68-0.82l-3.57-3.84     c-0.24-0.25-0.44-0.54-0.6-0.84h10.17C30.05,76.26,30.61,76.81,30.61,77.5z"/><path class="st33" d="M33.85,71.99v3.03c0,0.69-0.56,1.24-1.24,1.24h-13.4c-0.34-0.61-0.54-1.32-0.57-2.04     c-0.05-1.2-0.04-2.35,0.02-3.46h13.95C33.29,70.76,33.85,71.31,33.85,71.99z"/><g><path class="st5" d="M29.4,87.27H6.44c-0.67,0-1.21-0.54-1.21-1.21v-3.09c0-0.67,0.54-1.21,1.21-1.21H29.4      c0.67,0,1.21,0.54,1.21,1.21v3.09C30.61,86.73,30.07,87.27,29.4,87.27z"/><path class="st5" d="M26.17,81.77H3.21C2.54,81.77,2,81.23,2,80.56v-3.09c0-0.67,0.54-1.21,1.21-1.21h22.97      c0.67,0,1.21,0.54,1.21,1.21v3.09C27.38,81.23,26.84,81.77,26.17,81.77z"/><path class="st5" d="M29.4,76.26H6.44c-0.67,0-1.21-0.54-1.21-1.21v-3.09c0-0.67,0.54-1.21,1.21-1.21H29.4      c0.67,0,1.21,0.54,1.21,1.21v3.09C30.61,75.72,30.07,76.26,29.4,76.26z"/><path class="st13" d="M31.02,87.27H8.06c-0.67,0-1.21-0.54-1.21-1.21v-3.09c0-0.67,0.54-1.21,1.21-1.21h22.97      c0.67,0,1.21,0.54,1.21,1.21v3.09C32.23,86.73,31.69,87.27,31.02,87.27z"/><path class="st10" d="M27.79,81.77H4.82c-0.67,0-1.21-0.54-1.21-1.21v-3.09c0-0.67,0.54-1.21,1.21-1.21h22.97      c0.67,0,1.21,0.54,1.21,1.21v3.09C28.99,81.23,28.45,81.77,27.79,81.77z"/><path class="st13" d="M31.02,76.26H8.06c-0.67,0-1.21-0.54-1.21-1.21v-3.09c0-0.67,0.54-1.21,1.21-1.21h22.97      c0.67,0,1.21,0.54,1.21,1.21v3.09C32.23,75.72,31.69,76.26,31.02,76.26z"/><line class="st25" x1="29.46" y1="70.91" x2="29.46" y2="73.66"/><line class="st25" x1="26.62" y1="70.91" x2="26.62" y2="73.66"/><line class="st25" x1="23.79" y1="70.91" x2="23.79" y2="73.66"/><line class="st25" x1="20.96" y1="70.91" x2="20.96" y2="73.66"/><line class="st25" x1="18.12" y1="70.91" x2="18.12" y2="73.66"/><line class="st25" x1="15.29" y1="70.91" x2="15.29" y2="73.66"/><line class="st25" x1="12.45" y1="70.91" x2="12.45" y2="73.66"/><line class="st25" x1="9.62" y1="70.91" x2="9.62" y2="73.66"/><line class="st25" x1="29.46" y1="81.77" x2="29.46" y2="84.52"/><line class="st25" x1="26.62" y1="81.77" x2="26.62" y2="84.52"/><line class="st25" x1="23.79" y1="81.77" x2="23.79" y2="84.52"/><line class="st25" x1="20.96" y1="81.77" x2="20.96" y2="84.52"/><line class="st25" x1="18.12" y1="81.77" x2="18.12" y2="84.52"/><line class="st25" x1="15.29" y1="81.77" x2="15.29" y2="84.52"/><line class="st25" x1="12.45" y1="81.77" x2="12.45" y2="84.52"/><line class="st25" x1="9.62" y1="81.77" x2="9.62" y2="84.52"/><line class="st25" x1="26.22" y1="76.34" x2="26.22" y2="79.09"/><line class="st25" x1="23.39" y1="76.34" x2="23.39" y2="79.09"/><line class="st25" x1="20.56" y1="76.34" x2="20.56" y2="79.09"/><line class="st25" x1="17.72" y1="76.34" x2="17.72" y2="79.09"/><line class="st25" x1="14.89" y1="76.34" x2="14.89" y2="79.09"/><line class="st25" x1="12.05" y1="76.34" x2="12.05" y2="79.09"/><line class="st25" x1="9.22" y1="76.34" x2="9.22" y2="79.09"/><line class="st25" x1="6.38" y1="76.34" x2="6.38" y2="79.09"/></g></g><g><path class="st5" d="M64.67,87.28h22.18c0.73,0,1.32-0.59,1.32-1.32v-2.81c0-0.73-0.59-1.32-1.32-1.32H64.67     c-0.73,0-1.32,0.59-1.32,1.32v2.81C63.35,86.68,63.94,87.28,64.67,87.28z"/><path class="st5" d="M61.71,81.82h22.18c0.73,0,1.32-0.59,1.32-1.32v-2.81c0-0.73-0.59-1.32-1.32-1.32H61.71     c-0.73,0-1.32,0.59-1.32,1.32v2.81C60.39,81.22,60.98,81.82,61.71,81.82z"/><path class="st5" d="M64.67,76.36h22.18c0.73,0,1.32-0.59,1.32-1.32v-2.81c0-0.73-0.59-1.32-1.32-1.32H64.67     c-0.73,0-1.32,0.59-1.32,1.32v2.81C63.35,75.76,63.94,76.36,64.67,76.36z"/><rect x="73.58" y="70.9" transform="matrix(-1 -4.494595e-11 4.494595e-11 -1 151.5185 147.2551)" class="st5" width="4.35" height="5.46"/><rect x="70.63" y="76.36" transform="matrix(-1 -4.494595e-11 4.494595e-11 -1 145.604 158.1742)" class="st5" width="4.35" height="5.46"/><rect x="73.58" y="81.82" transform="matrix(-1 -4.515511e-11 4.515511e-11 -1 151.5185 169.0934)" class="st5" width="4.35" height="5.46"/><path class="st26" d="M63.19,87.28h22.18c0.73,0,1.32-0.59,1.32-1.32v-2.81c0-0.73-0.59-1.32-1.32-1.32H63.19     c-0.73,0-1.32,0.59-1.32,1.32v2.81C61.87,86.68,62.46,87.28,63.19,87.28z"/><path class="st26" d="M60.24,81.82h22.18c0.73,0,1.32-0.59,1.32-1.32v-2.81c0-0.73-0.59-1.32-1.32-1.32H60.24     c-0.73,0-1.32,0.59-1.32,1.32v2.81C58.91,81.22,59.5,81.82,60.24,81.82z"/><path class="st26" d="M63.19,76.36h22.18c0.73,0,1.32-0.59,1.32-1.32v-2.81c0-0.73-0.59-1.32-1.32-1.32H63.19     c-0.73,0-1.32,0.59-1.32,1.32v2.81C61.87,75.76,62.46,76.36,63.19,76.36z"/><rect x="72.11" y="70.9" transform="matrix(-1 -4.494595e-11 4.494595e-11 -1 148.5612 147.2551)" class="st25" width="4.35" height="5.46"/><rect x="69.15" y="76.36" transform="matrix(-1 -4.494595e-11 4.494595e-11 -1 142.6467 158.1742)" class="st25" width="4.35" height="5.46"/><rect x="72.11" y="81.82" transform="matrix(-1 -4.473678e-11 4.473678e-11 -1 148.5612 169.0934)" class="st25" width="4.35" height="5.46"/></g><g><g><g><g><g><g><g><path class="st5" d="M8.71,27.81c4.2,3.69,10.62,3.27,14.3-0.93c3.69-4.2,3.27-10.62-0.93-14.3l-1.41-1.24L7.3,26.57           L8.71,27.81z"/><path class="st13" d="M7.3,26.57c-4.2-3.69-4.62-10.1-0.93-14.3c3.69-4.2,10.1-4.62,14.3-0.93s4.62,10.1,0.93,14.3           C17.91,29.84,11.5,30.26,7.3,26.57z"/><circle class="st5" cx="13.98" cy="18.95" r="7.58"/><path class="st10" d="M19.68,23.95c-2.63,2.99-7.08,3.42-10.22,1.08c-2.73-2.8-2.88-7.28-0.25-10.27           c2.62-2.99,7.08-3.41,10.21-1.08C22.15,16.49,22.3,20.96,19.68,23.95z"/><g><path class="st11" d="M10.95,19.15c-0.78,0.89-0.69,2.25,0.2,3.03c0.89,0.78,2.25,0.69,3.03-0.2            c0.78-0.89,0.69-2.25-0.2-3.03s-0.98-2.14-0.2-3.03c0.78-0.89,2.14-0.98,3.03-0.2c0.89,0.78,0.98,2.14,0.2,3.03"/><line class="st25" x1="16.82" y1="15.73" x2="17.31" y2="15.16"/><line class="st25" x1="10.65" y1="22.75" x2="11.15" y2="22.18"/></g></g></g></g></g></g></g></g><g><g><g><g><g><g><g><path class="st5" d="M88.72,31.53c4.12-3.78,4.4-10.2,0.63-14.32c-3.78-4.12-10.2-4.4-14.32-0.62l-1.38,1.27L87.33,32.8           L88.72,31.53z"/><path class="st13" d="M87.33,32.8c-4.12,3.78-10.54,3.5-14.32-0.62c-3.78-4.12-3.49-10.54,0.62-14.32           c4.12-3.78,10.54-3.5,14.32,0.62C91.73,22.6,91.45,29.02,87.33,32.8z"/><circle class="st5" cx="80.49" cy="25.33" r="7.58"/><path class="st10" d="M86.07,20.2c2.69,2.94,2.63,7.41-0.03,10.27c-3.08,2.41-7.55,2.07-10.24-0.86           c-2.69-2.93-2.63-7.41,0.04-10.27C78.92,16.94,83.39,17.27,86.07,20.2z"/><g><path class="st11" d="M80.35,28.36c0.8,0.87,2.16,0.93,3.03,0.13c0.87-0.8,0.93-2.16,0.13-3.03            c-0.8-0.87-2.16-0.93-3.03-0.13s-2.23,0.74-3.03-0.13c-0.8-0.87-0.74-2.23,0.13-3.03s2.23-0.74,3.03,0.13"/><line class="st25" x1="77.58" y1="22.16" x2="77.07" y2="21.6"/><line class="st25" x1="83.9" y1="29.05" x2="83.39" y2="28.49"/></g></g></g></g></g></g></g></g></g></g><g id="Layer_4"/></svg>