<?xml version="1.0" ?><svg xmlns="http://www.w3.org/2000/svg" xmlns:xlink="http://www.w3.org/1999/xlink" version="1.1" viewBox="0 0 94 94" style="enable-background:new 0 0 94 94;" xml:space="preserve"><style type="text/css">
	.st0{display:none;}
	.st1{display:inline;fill:#FEA900;}
	.st2{display:inline;}
	.st3{display:inline;fill:#F9CD6C;}
	.st4{display:inline;fill:none;stroke:#000000;stroke-width:0.25;stroke-miterlimit:10;}
	.st5{stroke:#000000;stroke-linecap:round;stroke-linejoin:round;stroke-miterlimit:10;}
	.st6{opacity:0.2;stroke:#000000;stroke-linecap:round;stroke-linejoin:round;stroke-miterlimit:10;}
	.st7{fill:#F12A00;stroke:#000000;stroke-linecap:round;stroke-linejoin:round;stroke-miterlimit:10;}
	.st8{fill:#FBECCF;stroke:#000000;stroke-linecap:round;stroke-linejoin:round;stroke-miterlimit:10;}
	.st9{opacity:0.2;fill:#F12A00;}
	.st10{fill:#F7C86C;stroke:#000000;stroke-linecap:round;stroke-linejoin:round;stroke-miterlimit:10;}
	.st11{fill:none;stroke:#000000;stroke-linecap:round;stroke-linejoin:round;stroke-miterlimit:10;}
	.st12{display:inline;stroke:#000000;stroke-linecap:round;stroke-linejoin:round;stroke-miterlimit:10;}
	.st13{fill:#FAAC01;stroke:#000000;stroke-linecap:round;stroke-linejoin:round;stroke-miterlimit:10;}
	.st14{fill:#FAAC01;}
	.st15{display:inline;fill:#FAEBCE;stroke:#000000;stroke-width:0.25;stroke-miterlimit:10;}
	.st16{display:inline;fill:none;stroke:#000000;stroke-width:1.0164;stroke-miterlimit:10;}
	.st17{display:inline;fill:#FAEBCE;stroke:#000000;stroke-width:1.0164;stroke-miterlimit:10;}
	.st18{fill:#FEA900;}
	.st19{fill:#F9CD6C;}
	.st20{fill:none;stroke:#000000;stroke-width:1.0164;stroke-miterlimit:10;}
	.st21{fill:#FAEBCE;stroke:#000000;stroke-width:1.0164;stroke-miterlimit:10;}
	.st22{display:inline;fill:#FAEBCE;}
	.st23{fill:#008FF5;stroke:#000000;stroke-linecap:round;stroke-linejoin:round;stroke-miterlimit:10;}
	.st24{fill:#D0E6FB;stroke:#000000;stroke-linecap:round;stroke-linejoin:round;stroke-miterlimit:10;}
	.st25{fill:#FFFFFF;stroke:#000000;stroke-linecap:round;stroke-linejoin:round;stroke-miterlimit:10;}
	.st26{fill:#75D95D;stroke:#000000;stroke-linecap:round;stroke-linejoin:round;stroke-miterlimit:10;}
	.st27{fill:#CAF3BB;}
	.st28{fill:#FFFFFF;}
	.st29{fill:#CAF3BB;stroke:#000000;stroke-linecap:round;stroke-linejoin:round;stroke-miterlimit:10;}
	.st30{display:inline;fill:#D0E6FB;stroke:#000000;stroke-linecap:round;stroke-linejoin:round;stroke-miterlimit:10;}
	.st31{stroke:#FFFFFF;stroke-linecap:round;stroke-linejoin:round;stroke-miterlimit:10;}
	.st32{fill:#B4B2FB;stroke:#000000;stroke-linecap:round;stroke-linejoin:round;stroke-miterlimit:10;}
	.st33{fill:#018BEE;}
	.st34{display:inline;fill:none;stroke:#000000;stroke-linecap:round;stroke-linejoin:round;stroke-miterlimit:10;}
	.st35{fill:#75D95D;}
	.st36{fill:#4949F7;stroke:#000000;stroke-linecap:round;stroke-linejoin:round;stroke-miterlimit:10;}
	.st37{fill:#D0E6FB;}
	.st38{fill:#6FBBF7;stroke:#000000;stroke-linecap:round;stroke-linejoin:round;stroke-miterlimit:10;}
	.st39{fill:#018BEE;stroke:#000000;stroke-linecap:round;stroke-linejoin:round;stroke-miterlimit:10;}
	.st40{fill:#B4B2FB;}
	.st41{fill:#E8E9FE;}
	.st42{fill:#B4B2FB;stroke:#000F24;stroke-miterlimit:10;}
	.st43{stroke:#000000;stroke-miterlimit:10;}
	.st44{fill:#E8E9FE;stroke:#000000;stroke-linecap:round;stroke-linejoin:round;stroke-miterlimit:10;}
	.st45{opacity:0.3;fill:#018BEE;}
	.st46{fill:#6FBBF7;}
	.st47{fill:#FAAC01;stroke:#FFFFFF;stroke-linecap:round;stroke-linejoin:round;stroke-miterlimit:10;}
	.st48{fill:#006A2F;}
	.st49{opacity:0.1;}
	.st50{fill:#FCD4CA;stroke:#000000;stroke-linecap:round;stroke-linejoin:round;stroke-miterlimit:10;}
	.st51{fill:#006A2F;stroke:#000000;stroke-linecap:round;stroke-linejoin:round;stroke-miterlimit:10;}
	.st52{fill:#4949F7;}
	.st53{fill:#F12A00;}
	.st54{fill:#D0E6FB;stroke:#018BEE;stroke-linecap:round;stroke-linejoin:round;stroke-miterlimit:10;}
	.st55{fill:#9CD7FF;}
	.st56{fill:#F7C86C;}
	.st57{opacity:0.3;stroke:#000000;stroke-linecap:round;stroke-linejoin:round;stroke-miterlimit:10;}
	.st58{opacity:0.1;stroke:#000000;stroke-linecap:round;stroke-linejoin:round;stroke-miterlimit:10;}
	.st59{opacity:0.3;fill:#006A2F;}
	.st60{stroke:#000000;stroke-width:1.0825;stroke-linecap:round;stroke-linejoin:round;stroke-miterlimit:10;}
	.st61{fill:#D0E6FB;stroke:#000000;stroke-width:1.0825;stroke-linecap:round;stroke-linejoin:round;stroke-miterlimit:10;}
	.st62{fill:#6FBBF7;stroke:#000000;stroke-width:1.0825;stroke-linecap:round;stroke-linejoin:round;stroke-miterlimit:10;}
	.st63{fill:none;stroke:#000000;stroke-width:1.0825;stroke-linecap:round;stroke-linejoin:round;stroke-miterlimit:10;}
	.st64{fill:#CAF3BB;stroke:#000000;stroke-width:0.7876;stroke-linecap:round;stroke-linejoin:round;stroke-miterlimit:10;}
	.st65{fill:#6FBBF7;stroke:#FFFFFF;stroke-linecap:round;stroke-linejoin:round;stroke-miterlimit:10;}
	.st66{opacity:0.2;}
	.st67{stroke:#E8E9FE;stroke-linecap:round;stroke-linejoin:round;stroke-miterlimit:10;}
	.st68{fill:#FCD4CA;}
	.st69{fill:#FBECCF;}
	.st70{opacity:0.1;fill:#F12A00;}
	.st71{opacity:0.5;stroke:#000000;stroke-linecap:round;stroke-linejoin:round;stroke-miterlimit:10;}
	.st72{fill:#6FBBF7;stroke:#E8E9FE;stroke-linecap:round;stroke-linejoin:round;stroke-miterlimit:10;}
	.st73{opacity:0.5;fill:#D0E6FB;}
	.st74{fill:#70BAF7;}
	.st75{fill:none;stroke:#FFFFFF;stroke-linecap:round;stroke-linejoin:round;stroke-miterlimit:10;}
	.st76{fill:#70BAF7;stroke:#70BAF7;stroke-linecap:round;stroke-linejoin:round;stroke-miterlimit:10;}
	.st77{fill:#018BEE;stroke:#018BEE;stroke-linecap:round;stroke-linejoin:round;stroke-miterlimit:10;}
	.st78{fill:#70BAF7;stroke:#000000;stroke-linecap:round;stroke-linejoin:round;stroke-miterlimit:10;}
	.st79{fill:#F9CD6C;stroke:#000000;stroke-linecap:round;stroke-linejoin:round;stroke-miterlimit:10;}
	.st80{fill:none;}
	.st81{fill:#006A2F;stroke:#006A2F;stroke-miterlimit:10;}
	.st82{fill:#B4DFFC;}
	.st83{fill:#6FBBF7;stroke:#018BEE;stroke-linecap:round;stroke-linejoin:round;stroke-miterlimit:10;}
	.st84{fill:none;stroke:#FBECCF;stroke-linecap:round;stroke-linejoin:round;stroke-miterlimit:10;}
	.st85{fill:none;stroke:#018BEE;stroke-linecap:round;stroke-linejoin:round;stroke-miterlimit:10;}
	.st86{fill:#010101;stroke:#FFFFFF;stroke-linecap:round;stroke-linejoin:round;stroke-miterlimit:10;}
	.st87{fill:#010101;stroke:#000000;stroke-linecap:round;stroke-linejoin:round;stroke-miterlimit:10;}
	.st88{fill:#75D95D;stroke:#FFFFFF;stroke-linecap:round;stroke-linejoin:round;stroke-miterlimit:10;}
	.st89{fill:#94F279;stroke:#000000;stroke-linecap:round;stroke-linejoin:round;stroke-miterlimit:10;}
	.st90{fill:#8C8CF9;}
	.st91{fill:#008FF5;}
	.st92{fill:#8CD8F9;}
	.st93{fill:#FFC043;}
	.st94{fill:#94F279;}
	.st95{fill:#FF3D1D;}
	.st96{fill:#31B1FF;}
	.st97{fill:#FFCF7B;}
	.st98{fill:#B2FF99;}
	.st99{fill:#D7D7FF;}
	.st100{fill:#FF7C6E;}
	.st101{fill:#5CC9FF;}
	.st102{fill:#F12A00;stroke:#FFFFFF;stroke-linecap:round;stroke-linejoin:round;stroke-miterlimit:10;}
	.st103{fill:#F7C86C;stroke:#000000;stroke-width:1.0164;stroke-miterlimit:10;}
</style><g id="Refrences" class="st0"/><g id="Tittle"/><g id="Icons"><g><path class="st46" d="M83.88,12.19V9.76c0-3.47-2.81-6.29-6.29-6.29h-0.4c-3.47,0-6.29,2.81-6.29,6.29v2.43H83.88z"/><rect x="23.03" y="11.35" class="st5" width="47.88" height="0.33"/><path class="st5" d="M70.91,12.19V11.7L77.2,2h-50.3c-2.13,0-3.86,1.73-3.86,3.86v6.33H70.91z"/><path class="st5" d="M83.48,12.03H70.91V8.29C70.91,4.81,73.73,2,77.2,2h0c3.47,0,6.29,2.81,6.29,6.29V12.03z"/><path class="st25" d="M65.69,12.19v-0.86c0-1.17-0.95-2.12-2.12-2.12H30.99c-1.17,0-2.12,0.95-2.12,2.12v0.86H65.69z"/><path class="st5" d="M25.77,81.38H10.28c-1.28,0-2.32,1.04-2.32,2.32v5.99C7.97,90.96,9,92,10.28,92h15.49V81.38z"/><path class="st5" d="M25.77,81.38H10.28c-1.28,0-2.32,1.04-2.32,2.32v5.99C7.97,90.96,9,92,10.28,92h15.49V81.38z"/><path class="st5" d="M25.77,87.28H7.97v2.41C7.97,90.96,9,92,10.28,92h15.49V87.28z"/><path class="st5" d="M25.77,36.85l-8.74,9.17c-3.54,3.72-5.52,8.65-5.52,13.79v21.58h14.26V36.85z"/><path class="st5" d="M25.77,81.38H10.28c-1.28,0-2.32,1.04-2.32,2.32v5.99C7.97,90.96,9,92,10.28,92h15.49V81.38z"/><path class="st7" d="M77.71,88.4l-6.8-5.63l-6.8,5.63c-0.5,0.31-1.14-0.05-1.14-0.64V69.91h15.87v17.85    C78.85,88.34,78.21,88.7,77.71,88.4z"/><path class="st7" d="M43.3,92H13.89c-1.31,0-2.38-1.06-2.38-2.38v-5.86c0-1.31,1.06-2.38,2.38-2.38H43.3    c1.31,0,2.38,1.06,2.38,2.38v5.86C45.68,90.94,44.62,92,43.3,92z"/><path class="st26" d="M43.3,92H13.89c-1.31,0-2.38-1.06-2.38-2.38v-5.86c0-1.31,1.06-2.38,2.38-2.38H43.3    c1.31,0,2.38,1.06,2.38,2.38v5.86C45.68,90.94,44.62,92,43.3,92z"/><path class="st48" d="M11.51,87.28v2.41c0,1.28,1.04,2.32,2.32,2.32h29.54c1.28,0,2.32-1.04,2.32-2.32v-2.41H11.51z"/><path class="st50" d="M47.15,62.73c0.82,8.34-2.34,11.47-4.42,12.62c-1.04,0.58-1.69,1.66-1.69,2.85v3.18H15.06V59.81    c0-5.13,1.98-10.07,5.52-13.79l8.77-9.2L47.15,62.73z"/><rect x="23.03" y="14.67" class="st5" width="47.88" height="0.33"/><path class="st44" d="M70.91,15.02v49.32c0,2.13-1.73,3.86-3.86,3.86H26.89c-2.13,0-3.86-1.73-3.86-3.86V9.17    c0-2.13,1.73-3.86,3.86-3.86h50.3"/><path class="st50" d="M19.73,67.69l6.57-9.14c0.99-1.37,2.89-1.66,4.24-0.64l0,0c1.5,1.14,1.89,3.22,0.9,4.82l-0.68,1.11    c-0.64,1.05-1.05,2.21-1.3,3.41c-0.37,1.72-1.8,4.56-6.04,5.21"/><path class="st25" d="M83.48,15.35H70.91V11.6c0-3.47,2.81-6.29,6.29-6.29h0c3.47,0,6.29,2.81,6.29,6.29V15.35z"/><rect x="70.91" y="12.79" class="st82" width="12.57" height="2.55"/><path class="st25" d="M63.52,21.12H31.04c-1.2,0-2.18-0.98-2.18-2.18V14.7c0-1.2,0.98-2.18,2.18-2.18h32.47    c1.2,0,2.18,0.98,2.18,2.18v4.24C65.69,20.14,64.72,21.12,63.52,21.12z"/><path class="st46" d="M64.21,32.36H30.35c-0.82,0-1.49-0.67-1.49-1.49v0c0-0.82,0.67-1.49,1.49-1.49h33.85    c0.82,0,1.49,0.67,1.49,1.49v0C65.69,31.7,65.03,32.36,64.21,32.36z"/><path class="st46" d="M53.45,39.73h-23.1c-0.82,0-1.49-0.67-1.49-1.49l0,0c0-0.82,0.67-1.49,1.49-1.49h23.1    c0.82,0,1.49,0.67,1.49,1.49l0,0C54.94,39.06,54.27,39.73,53.45,39.73z"/><path class="st46" d="M41.87,47.1H30.35c-0.82,0-1.49-0.67-1.49-1.49v0c0-0.82,0.67-1.49,1.49-1.49h11.52    c0.82,0,1.49,0.67,1.49,1.49v0C43.36,46.43,42.69,47.1,41.87,47.1z"/><circle class="st10" cx="70.91" cy="57.3" r="15.12"/><path class="st25" d="M70.91,66.19c-4.9,0-8.89-3.99-8.89-8.89s3.99-8.89,8.89-8.89c4.9,0,8.89,3.99,8.89,8.89    S75.81,66.19,70.91,66.19z"/><path class="st14" d="M73.08,48.69c4.91,5.74,4.91,11.48,0,17.22c3.85-0.97,6.72-4.46,6.72-8.61S76.94,49.67,73.08,48.69z"/><path class="st11" d="M43.3,92H13.89c-1.31,0-2.38-1.06-2.38-2.38v-5.86c0-1.31,1.06-2.38,2.38-2.38H43.3    c1.31,0,2.38,1.06,2.38,2.38v5.86C45.68,90.94,44.62,92,43.3,92z"/><circle class="st5" cx="39.07" cy="87.28" r="2.65"/><path class="st11" d="M70.91,66.19c-4.9,0-8.89-3.99-8.89-8.89s3.99-8.89,8.89-8.89c4.9,0,8.89,3.99,8.89,8.89    S75.81,66.19,70.91,66.19z"/><path class="st11" d="M70.91,66.19c-4.9,0-8.89-3.99-8.89-8.89s3.99-8.89,8.89-8.89c4.9,0,8.89,3.99,8.89,8.89    S75.81,66.19,70.91,66.19z"/><path class="st11" d="M83.48,15.35H70.91V11.6c0-3.47,2.81-6.29,6.29-6.29h0c3.47,0,6.29,2.81,6.29,6.29V15.35z"/></g></g><g id="Layer_4"/></svg>